<?xml version="1.0" standalone="no"?>
<!DOCTYPE svg PUBLIC "-//W3C//DTD SVG 20010904//EN"
 "http://www.w3.org/TR/2001/REC-SVG-20010904/DTD/svg10.dtd">
<svg version="1.0" xmlns="http://www.w3.org/2000/svg"
 width="1024.000000pt" height="1024.000000pt" viewBox="0 0 1024.000000 1024.000000"
 preserveAspectRatio="xMidYMid meet">

<g transform="translate(0.000000,1024.000000) scale(0.100000,-0.100000)"
fill="#000000" stroke="none">
<path d="M4850 9384 c-25 -2 -101 -8 -170 -14 -417 -36 -770 -121 -1198 -290
-442 -174 -904 -469 -1297 -827 -520 -474 -990 -1244 -1191 -1951 -247 -871
-209 -1817 109 -2657 148 -392 317 -702 571 -1048 150 -205 220 -288 393 -462
216 -220 430 -396 665 -548 509 -331 997 -533 1618 -671 352 -77 742 -94 1195
-51 509 48 1006 195 1505 445 372 186 654 381 990 685 251 226 404 401 603
688 410 592 623 1135 726 1852 34 238 44 419 38 699 -13 603 -134 1130 -392
1696 -128 283 -368 667 -585 937 -92 114 -414 432 -565 557 -206 172 -479 344
-785 497 -491 244 -1049 403 -1575 449 -126 11 -578 21 -655 14z m264 -336
c10 -59 15 -7849 6 -7874 -9 -24 -12 -24 -138 -24 -209 0 -578 52 -819 115
-640 168 -1153 434 -1668 864 -456 381 -867 955 -1088 1521 -181 463 -263 887
-274 1410 -11 551 59 972 242 1450 230 600 576 1116 1023 1526 409 375 880
652 1420 835 367 124 563 166 952 202 19 2 103 5 187 5 l152 2 5 -32z m1707
-953 c36 -116 65 -171 127 -237 65 -70 125 -103 247 -138 61 -18 116 -36 124
-40 9 -5 -21 -16 -81 -29 -231 -53 -339 -152 -423 -386 l-38 -106 -36 108
c-42 124 -81 191 -150 256 -68 64 -111 83 -285 132 -38 11 -55 20 -49 26 5 5
58 23 118 40 135 37 171 56 233 119 61 62 102 145 138 278 18 67 30 99 36 90
4 -7 22 -58 39 -113z m758 -1453 c34 -110 85 -196 153 -259 59 -53 103 -75
239 -120 70 -22 106 -39 98 -43 -8 -5 -63 -22 -123 -39 -115 -33 -170 -64
-237 -134 -74 -78 -114 -155 -154 -301 -9 -32 -18 -57 -19 -55 -2 2 -20 53
-40 112 -76 228 -158 313 -370 382 -60 19 -111 37 -113 39 -3 2 47 20 109 40
226 70 308 157 388 413 12 40 26 70 30 68 5 -3 22 -49 39 -103z m-1007 -91
c-233 -307 -332 -612 -319 -981 8 -226 44 -378 138 -579 126 -269 343 -507
594 -651 212 -121 476 -190 728 -190 191 0 291 18 515 91 68 22 126 38 130 35
13 -13 -99 -158 -203 -261 -181 -181 -372 -302 -590 -374 -193 -64 -271 -76
-495 -76 -178 1 -206 3 -315 29 -537 125 -945 467 -1141 954 -170 425 -151
917 51 1327 178 359 493 629 865 741 118 35 118 35 42 -65z"/>
<path d="M3405 7602 c-85 -40 -80 -10 -83 -491 -2 -413 -2 -427 18 -459 53
-86 186 -74 238 21 15 29 17 71 17 432 0 382 -1 402 -20 434 -42 70 -104 94
-170 63z"/>
<path d="M2102 6980 c-21 -13 -41 -38 -54 -67 -36 -81 -28 -92 239 -369 259
-268 274 -279 352 -255 76 22 120 115 87 179 -17 33 -480 513 -505 524 -32 13
-87 8 -119 -12z"/>
<path d="M4705 6990 c-12 -4 -88 -79 -170 -166 -82 -88 -188 -200 -236 -249
-96 -99 -119 -147 -98 -202 16 -42 58 -82 95 -89 71 -13 97 6 322 234 224 226
258 267 272 328 22 97 -90 183 -185 144z"/>
<path d="M3260 6350 c-273 -58 -485 -193 -651 -413 -145 -192 -219 -415 -219
-659 0 -311 108 -568 328 -780 148 -143 295 -227 480 -274 476 -123 978 107
1211 554 85 164 121 316 121 509 0 524 -378 977 -890 1069 -106 19 -277 16
-380 -6z m317 -265 c80 -8 168 -36 268 -88 60 -31 103 -64 171 -132 106 -105
160 -190 204 -324 26 -78 32 -114 37 -220 5 -107 2 -139 -16 -215 -81 -336
-316 -564 -653 -632 -155 -31 -312 -6 -487 78 -93 45 -115 60 -200 147 -111
111 -151 174 -197 310 -76 219 -47 497 70 689 132 217 355 363 601 392 59 7
76 7 202 -5z"/>
<path d="M1490 5397 c-66 -33 -94 -153 -49 -211 43 -54 54 -56 368 -56 170 0
311 4 340 11 116 25 147 158 55 239 l-35 30 -327 0 c-241 0 -333 -4 -352 -13z"/>
<path d="M2575 4271 c-17 -4 -42 -15 -56 -24 -36 -24 -429 -450 -456 -495 -14
-23 -23 -53 -23 -79 0 -78 79 -138 156 -119 34 9 503 485 526 534 37 79 17
140 -56 173 -45 20 -47 20 -91 10z"/>
<path d="M4268 4263 c-35 -22 -68 -82 -68 -124 0 -47 20 -75 164 -227 69 -73
157 -170 195 -216 134 -158 215 -183 300 -92 19 20 26 40 29 85 l4 58 -62 59
c-34 33 -125 129 -202 214 -162 179 -199 215 -250 241 -45 23 -75 24 -110 2z"/>
<path d="M3393 3960 c-18 -10 -41 -37 -53 -59 -19 -39 -20 -57 -20 -448 l0
-408 25 -37 c43 -64 130 -71 199 -17 56 44 56 43 56 488 l0 409 -25 30 c-50
60 -125 77 -182 42z"/>
</g>
</svg>
