<?xml version="1.0" encoding="UTF-8"?>
<svg version="1.1" xmlns="http://www.w3.org/2000/svg" width="1024" height="1024">
<path d="M0 0 C337.92 0 675.84 0 1024 0 C1024 337.92 1024 675.84 1024 1024 C686.08 1024 348.16 1024 0 1024 C0 686.08 0 348.16 0 0 Z " fill="#FEFEFE" transform="translate(0,0)"/>
<path d="M0 0 C1.64040475 -0.00407174 3.28080674 -0.00941698 4.92120361 -0.01593018 C9.35096285 -0.02953801 13.78051109 -0.02433228 18.21027374 -0.01479292 C22.86072836 -0.00716231 27.51116572 -0.01425134 32.16162109 -0.01895142 C39.96910829 -0.0243991 47.77651016 -0.01724333 55.58398438 -0.00292969 C64.59199804 0.01339492 73.59980796 0.00810571 82.6078167 -0.0084089 C90.3618436 -0.02205197 98.1158094 -0.02392967 105.86984444 -0.0160929 C110.4922634 -0.01143186 115.1145868 -0.01074813 119.73699951 -0.02070236 C124.08408834 -0.02941091 128.43091616 -0.02327959 132.77797699 -0.00601959 C134.36698729 -0.00207542 135.9560198 -0.00315304 137.54502106 -0.00980759 C158.94380369 -0.09111538 158.94380369 -0.09111538 166.48852539 7.35253906 C167.31587189 8.15173767 168.14321838 8.95093628 168.99563599 9.77435303 C169.85559174 10.63691711 170.71554749 11.4994812 171.6015625 12.38818359 C173.00551385 13.74685216 174.40947161 15.10551414 175.81369686 16.46389961 C178.3641026 18.94367085 180.88665563 21.45139726 183.41015625 23.95849609 C183.94886919 24.49313351 184.48758213 25.02777092 185.04261971 25.57860947 C187.88246547 28.39781475 190.71918286 31.2201256 193.5534668 34.04492188 C196.46568053 36.94598789 199.38941246 39.83516178 202.31571865 42.72200203 C204.58295656 44.9630659 206.84123513 47.21299871 209.09721565 49.46538925 C210.17148368 50.53481033 211.24910619 51.60087341 212.33022881 52.66336441 C213.8397314 54.14840999 215.33599065 55.64570939 216.82983398 57.14648438 C217.68125473 57.99203888 218.53267548 58.83759338 219.40989685 59.70877075 C224.78990775 66.28608345 225.03593224 72.25118638 224.98251343 80.45088196 C224.9871934 81.55644996 224.99187337 82.66201797 224.99669516 83.80108804 C225.00864951 87.50122217 224.99918578 91.20098624 224.98974609 94.90112305 C224.99381166 97.55585815 224.99904511 100.21056786 225.00567627 102.86529541 C225.01900466 109.32542416 225.01613949 115.78544824 225.00743835 122.24558107 C225.00065692 127.49848374 224.99974707 132.75135713 225.0030098 138.00426292 C225.0034695 138.75255016 225.00392919 139.5008374 225.00440282 140.27180001 C225.00536203 141.79207897 225.00633467 143.31235791 225.0073206 144.83263686 C225.01587233 159.0839869 225.00604469 173.33527903 224.9899195 187.58661958 C224.97652475 199.80264847 224.97883786 212.0185918 224.99267578 224.23461914 C225.00874966 238.4311138 225.01503971 252.62755766 225.00583899 266.82406014 C225.00488338 268.33959241 225.00394027 269.85512468 225.0030098 271.37065697 C225.00254697 272.11625881 225.00208414 272.86186066 225.00160729 273.6300565 C224.99902221 278.87229837 225.00337817 284.11450791 225.01044846 289.35674477 C225.01888413 295.75179604 225.0165404 302.14673691 225.00060622 308.54177562 C224.99274987 311.80178914 224.99121555 315.06158207 224.99955368 318.32159996 C225.00777451 321.86276018 224.99744016 325.40340664 224.98251343 328.9445343 C224.98920559 329.96507804 224.99589776 330.98562177 225.00279272 332.03709108 C224.92397531 341.70478262 222.96756601 349.8483221 216.69140625 357.34521484 C208.68274828 365.17423937 199.48459562 367.6969608 188.62687683 367.65560913 C187.30541789 367.6624058 187.30541789 367.6624058 185.95726281 367.66933978 C183.01727166 367.68195881 180.07746634 367.68036502 177.13745117 367.67871094 C175.02458967 367.68469773 172.91173035 367.69150362 170.7988739 367.69906616 C165.06738308 367.71671766 159.33595201 367.72142118 153.60443664 367.72269773 C150.0214493 367.72412033 146.43847711 367.72839199 142.85549355 367.73369217 C130.34953473 367.75218939 117.84361852 367.76036313 105.33764648 367.75878906 C93.69001857 367.75758764 82.04257595 367.77869101 70.39499491 367.81027639 C60.3862789 367.83644802 50.37762338 367.84715599 40.36887342 367.84587824 C34.39492451 367.84536889 28.42114032 367.85103769 22.44722557 367.87223434 C16.82714615 367.89163158 11.20738835 367.8917308 5.58729744 367.87720108 C3.52902633 367.87511377 1.470735 367.87980917 -0.58750153 367.891922 C-14.74664307 367.96982801 -25.38054324 367.17617337 -36.3984375 357.38818359 C-42.82804331 350.77997763 -45.51530967 342.02046705 -45.53265858 332.962286 C-45.53711642 331.87926181 -45.54157426 330.79623763 -45.54616719 329.68039453 C-45.54598283 328.49626808 -45.54579847 327.31214164 -45.54560852 326.09213257 C-45.54928521 324.82972044 -45.5529619 323.5673083 -45.55675 322.26664126 C-45.56674789 318.76468527 -45.57048322 315.26274642 -45.57313931 311.76077819 C-45.5770489 307.98283523 -45.58662672 304.20490576 -45.59535217 300.42697144 C-45.61509734 291.30471496 -45.62517998 282.1824574 -45.63407996 273.0601849 C-45.63846575 268.7620222 -45.64383178 264.46386073 -45.64906883 260.16569901 C-45.6660786 245.87397454 -45.68057244 231.58225084 -45.68781757 217.29051781 C-45.68972739 213.58332697 -45.69164774 209.87613613 -45.69360352 206.16894531 C-45.69408726 205.24756766 -45.694571 204.32619 -45.6950694 203.37689181 C-45.70336855 188.45339292 -45.72870467 173.52997421 -45.76118419 158.60651033 C-45.79427345 143.27767909 -45.81226799 127.94888859 -45.81546181 112.62002146 C-45.8176251 104.01633837 -45.82634726 95.41277223 -45.85192299 86.80912399 C-45.87365543 79.48154289 -45.88166789 72.15410716 -45.87195621 64.82649748 C-45.86741894 61.0903947 -45.86926392 57.35459172 -45.88871765 53.61853027 C-45.90966283 49.56085603 -45.89934035 45.50384338 -45.88618469 41.44613647 C-45.89715394 40.27539436 -45.90812318 39.10465224 -45.91942483 37.89843309 C-45.83533089 27.13130726 -43.11507149 17.22512146 -35.3984375 9.38818359 C-24.82139573 0.45555715 -13.31046843 -0.05574268 0 0 Z " fill="#FEFEFE" transform="translate(197.3984375,335.61181640625)"/>
<path d="M0 0 C1.64040475 -0.00407174 3.28080674 -0.00941698 4.92120361 -0.01593018 C9.35096285 -0.02953801 13.78051109 -0.02433228 18.21027374 -0.01479292 C22.86072836 -0.00716231 27.51116572 -0.01425134 32.16162109 -0.01895142 C39.96910829 -0.0243991 47.77651016 -0.01724333 55.58398438 -0.00292969 C64.59199804 0.01339492 73.59980796 0.00810571 82.6078167 -0.0084089 C90.3618436 -0.02205197 98.1158094 -0.02392967 105.86984444 -0.0160929 C110.4922634 -0.01143186 115.1145868 -0.01074813 119.73699951 -0.02070236 C124.08408834 -0.02941091 128.43091616 -0.02327959 132.77797699 -0.00601959 C134.36698729 -0.00207542 135.9560198 -0.00315304 137.54502106 -0.00980759 C158.94380369 -0.09111538 158.94380369 -0.09111538 166.48852539 7.35253906 C167.31587189 8.15173767 168.14321838 8.95093628 168.99563599 9.77435303 C169.85559174 10.63691711 170.71554749 11.4994812 171.6015625 12.38818359 C173.00551385 13.74685216 174.40947161 15.10551414 175.81369686 16.46389961 C178.3641026 18.94367085 180.88665563 21.45139726 183.41015625 23.95849609 C183.94886919 24.49313351 184.48758213 25.02777092 185.04261971 25.57860947 C187.88246547 28.39781475 190.71918286 31.2201256 193.5534668 34.04492188 C196.46568053 36.94598789 199.38941246 39.83516178 202.31571865 42.72200203 C204.58295656 44.9630659 206.84123513 47.21299871 209.09721565 49.46538925 C210.17148368 50.53481033 211.24910619 51.60087341 212.33022881 52.66336441 C213.8397314 54.14840999 215.33599065 55.64570939 216.82983398 57.14648438 C217.68125473 57.99203888 218.53267548 58.83759338 219.40989685 59.70877075 C224.78990775 66.28608345 225.03593224 72.25118638 224.98251343 80.45088196 C224.9871934 81.55644996 224.99187337 82.66201797 224.99669516 83.80108804 C225.00864951 87.50122217 224.99918578 91.20098624 224.98974609 94.90112305 C224.99381166 97.55585815 224.99904511 100.21056786 225.00567627 102.86529541 C225.01900466 109.32542416 225.01613949 115.78544824 225.00743835 122.24558107 C225.00065692 127.49848374 224.99974707 132.75135713 225.0030098 138.00426292 C225.0034695 138.75255016 225.00392919 139.5008374 225.00440282 140.27180001 C225.00536203 141.79207897 225.00633467 143.31235791 225.0073206 144.83263686 C225.01587233 159.0839869 225.00604469 173.33527903 224.9899195 187.58661958 C224.97652475 199.80264847 224.97883786 212.0185918 224.99267578 224.23461914 C225.00874966 238.4311138 225.01503971 252.62755766 225.00583899 266.82406014 C225.00488338 268.33959241 225.00394027 269.85512468 225.0030098 271.37065697 C225.00254697 272.11625881 225.00208414 272.86186066 225.00160729 273.6300565 C224.99902221 278.87229837 225.00337817 284.11450791 225.01044846 289.35674477 C225.01888413 295.75179604 225.0165404 302.14673691 225.00060622 308.54177562 C224.99274987 311.80178914 224.99121555 315.06158207 224.99955368 318.32159996 C225.00777451 321.86276018 224.99744016 325.40340664 224.98251343 328.9445343 C224.98920559 329.96507804 224.99589776 330.98562177 225.00279272 332.03709108 C224.92397531 341.70478262 222.96756601 349.8483221 216.69140625 357.34521484 C208.68274828 365.17423937 199.48459562 367.6969608 188.62687683 367.65560913 C187.30541789 367.6624058 187.30541789 367.6624058 185.95726281 367.66933978 C183.01727166 367.68195881 180.07746634 367.68036502 177.13745117 367.67871094 C175.02458967 367.68469773 172.91173035 367.69150362 170.7988739 367.69906616 C165.06738308 367.71671766 159.33595201 367.72142118 153.60443664 367.72269773 C150.0214493 367.72412033 146.43847711 367.72839199 142.85549355 367.73369217 C130.34953473 367.75218939 117.84361852 367.76036313 105.33764648 367.75878906 C93.69001857 367.75758764 82.04257595 367.77869101 70.39499491 367.81027639 C60.3862789 367.83644802 50.37762338 367.84715599 40.36887342 367.84587824 C34.39492451 367.84536889 28.42114032 367.85103769 22.44722557 367.87223434 C16.82714615 367.89163158 11.20738835 367.8917308 5.58729744 367.87720108 C3.52902633 367.87511377 1.470735 367.87980917 -0.58750153 367.891922 C-14.74664307 367.96982801 -25.38054324 367.17617337 -36.3984375 357.38818359 C-42.82804331 350.77997763 -45.51530967 342.02046705 -45.53265858 332.962286 C-45.53711642 331.87926181 -45.54157426 330.79623763 -45.54616719 329.68039453 C-45.54598283 328.49626808 -45.54579847 327.31214164 -45.54560852 326.09213257 C-45.54928521 324.82972044 -45.5529619 323.5673083 -45.55675 322.26664126 C-45.56674789 318.76468527 -45.57048322 315.26274642 -45.57313931 311.76077819 C-45.5770489 307.98283523 -45.58662672 304.20490576 -45.59535217 300.42697144 C-45.61509734 291.30471496 -45.62517998 282.1824574 -45.63407996 273.0601849 C-45.63846575 268.7620222 -45.64383178 264.46386073 -45.64906883 260.16569901 C-45.6660786 245.87397454 -45.68057244 231.58225084 -45.68781757 217.29051781 C-45.68972739 213.58332697 -45.69164774 209.87613613 -45.69360352 206.16894531 C-45.69408726 205.24756766 -45.694571 204.32619 -45.6950694 203.37689181 C-45.70336855 188.45339292 -45.72870467 173.52997421 -45.76118419 158.60651033 C-45.79427345 143.27767909 -45.81226799 127.94888859 -45.81546181 112.62002146 C-45.8176251 104.01633837 -45.82634726 95.41277223 -45.85192299 86.80912399 C-45.87365543 79.48154289 -45.88166789 72.15410716 -45.87195621 64.82649748 C-45.86741894 61.0903947 -45.86926392 57.35459172 -45.88871765 53.61853027 C-45.90966283 49.56085603 -45.89934035 45.50384338 -45.88618469 41.44613647 C-45.89715394 40.27539436 -45.90812318 39.10465224 -45.91942483 37.89843309 C-45.83533089 27.13130726 -43.11507149 17.22512146 -35.3984375 9.38818359 C-24.82139573 0.45555715 -13.31046843 -0.05574268 0 0 Z M-26.57067871 22.7448616 C-29.65076744 27.6345737 -28.94768482 33.45309833 -28.90637207 39.0279541 C-28.91261203 40.31516625 -28.918852 41.6023784 -28.92528105 42.92859697 C-28.94196791 46.49509527 -28.93373124 50.06116504 -28.92133617 53.6276648 C-28.91228526 57.47641025 -28.92625559 61.32508205 -28.93725586 65.17381287 C-28.95504527 72.71093094 -28.95119925 80.24788971 -28.9396053 87.78501403 C-28.9305729 93.91040535 -28.92934613 100.03575201 -28.93370056 106.16114807 C-28.93431349 107.03284158 -28.93492643 107.9045351 -28.93555793 108.80264357 C-28.93683683 110.57345499 -28.93813368 112.3442664 -28.9394483 114.11507779 C-28.95085533 130.72121167 -28.93773846 147.32725722 -28.91624683 163.93337661 C-28.89837573 178.1831677 -28.9014798 192.43282845 -28.91992188 206.68261719 C-28.94132642 223.22919788 -28.94975668 239.77570116 -28.93747282 256.32229376 C-28.93619862 258.0866022 -28.93494114 259.85091065 -28.93370056 261.61521912 C-28.93308346 262.48329965 -28.93246636 263.35138019 -28.93183056 264.24576619 C-28.9283764 270.36402273 -28.9342074 276.48223019 -28.94361877 282.60047913 C-28.95483551 290.05629492 -28.95180561 297.51194226 -28.9304958 304.96773875 C-28.91998092 308.77206864 -28.91587079 312.57611764 -28.92909241 316.38044548 C-28.94320452 320.50334607 -28.92635836 324.62553698 -28.90637207 328.74841309 C-28.91529496 329.95249203 -28.92421784 331.15657098 -28.93341112 332.39713717 C-28.87575991 338.5072304 -28.81922905 342.74711173 -24.3984375 347.38818359 C-19.51100676 351.63784964 -15.69751038 351.96346323 -9.51708984 351.89611816 C-8.19267915 351.90547811 -8.19267915 351.90547811 -6.84151268 351.91502714 C-3.8888602 351.93095638 -0.93703332 351.91835307 2.015625 351.90576172 C4.13483155 351.91118286 6.25403434 351.91830547 8.37322998 351.92700195 C14.12525419 351.94523905 19.87699146 351.93816603 25.62902069 351.92548561 C31.64803339 351.91536004 37.66702149 351.92475007 43.68603516 351.93103027 C53.79399019 351.93830795 63.90182833 351.92871575 74.00976562 351.90966797 C85.69666474 351.88789909 97.38328473 351.89495037 109.07017708 351.91697359 C119.1034541 351.93512409 129.13664709 351.93768759 139.16993523 351.92721891 C145.16275483 351.9209821 151.15544322 351.92015364 157.14825439 351.93336487 C162.78229085 351.94491754 168.41596735 351.93690792 174.0499649 351.91378784 C176.11796725 351.90849769 178.18599987 351.91001974 180.25399017 351.9188385 C183.07647435 351.92976525 185.89780426 351.91606485 188.72021484 351.89611816 C189.53908991 351.90504105 190.35796497 351.91396394 191.20165443 351.92315722 C196.46203047 351.85102123 199.40846884 350.83472018 203.6015625 347.38818359 C207.23046851 343.36696342 208.72727194 340.45262911 208.72461033 335.05222797 C208.72660138 334.16147235 208.72859243 333.27071673 208.73064381 332.35296851 C208.72627455 330.883625 208.72627455 330.883625 208.72181702 329.38459778 C208.72267144 328.3448122 208.72352587 327.30502663 208.72440618 326.2337324 C208.72605959 322.7328714 208.72054184 319.2320578 208.71508789 315.73120117 C208.71480596 313.22832744 208.71496386 310.72545363 208.7155304 308.22257996 C208.71575847 302.82545672 208.71291323 297.42834838 208.70729256 292.03122902 C208.69917125 284.22786749 208.69656169 276.42451182 208.69530457 268.62114652 C208.69311504 255.96121351 208.68645764 243.30128694 208.67700195 230.64135742 C208.66782527 218.3422041 208.66074569 206.04305253 208.65649414 193.74389648 C208.65623142 192.98598778 208.65596869 192.22807907 208.65569801 191.44720344 C208.65439299 187.64506125 208.65312928 183.84291905 208.65188611 180.04077685 C208.64151659 148.48990775 208.62382672 116.93904665 208.6015625 85.38818359 C207.35133301 85.37360107 206.10110352 85.35901855 204.81298828 85.34399414 C200.13481317 85.28562996 195.45710036 85.2084018 190.77929688 85.12573242 C188.76212111 85.09266132 186.74485676 85.06457507 184.72753906 85.04174805 C181.81277023 85.00787215 178.89880025 84.95554259 175.984375 84.89990234 C175.09541534 84.89351242 174.20645569 84.8871225 173.29055786 84.88053894 C165.92009306 84.71092393 158.17021883 83.68689841 152.1640625 79.07568359 C146.01362728 72.62522714 146.13704448 66.48610034 146.08984375 57.98974609 C146.07189255 56.79964935 146.05394135 55.60955261 146.03544617 54.38339233 C145.9813926 50.59335847 145.94746221 46.80345022 145.9140625 43.01318359 C145.88088518 40.43894739 145.84639514 37.86472774 145.81054688 35.29052734 C145.72566872 28.98985873 145.65729765 22.68917377 145.6015625 16.38818359 C124.61759508 16.29468672 103.63366207 16.22417812 82.6495285 16.18093491 C72.90592988 16.16032144 63.16246079 16.13222407 53.41894531 16.08642578 C44.92516571 16.04652081 36.43147993 16.02074194 27.9376092 16.01182961 C23.44133545 16.00662106 18.94533008 15.99440445 14.44914246 15.96526337 C10.21381465 15.93803638 5.97886481 15.92975325 1.74345779 15.93575287 C0.19229196 15.93465588 -1.35888702 15.92674528 -2.90997696 15.91136169 C-16.07269372 15.69737319 -16.07269372 15.69737319 -26.57067871 22.7448616 Z " fill="#11475C" transform="translate(197.3984375,335.61181640625)"/>
<path d="M0 0 C9.9748684 7.02122717 15.13024696 17.83184299 17.49609375 29.5625 C18.92694632 42.19627784 15.92450483 55.19502192 8.49609375 65.5625 C2.42322818 72.24265213 -5.22786685 77.90663421 -14.4675293 78.73950195 C-27.42365341 79.12715092 -34.56165031 77.85733729 -45.50390625 70.5625 C-45.50390625 82.1125 -45.50390625 93.6625 -45.50390625 105.5625 C-51.77390625 105.5625 -58.04390625 105.5625 -64.50390625 105.5625 C-64.50390625 69.5925 -64.50390625 33.6225 -64.50390625 -3.4375 C-58.56390625 -3.4375 -52.62390625 -3.4375 -46.50390625 -3.4375 C-46.17390625 -0.7975 -45.84390625 1.8425 -45.50390625 4.5625 C-44.57578125 3.655 -43.64765625 2.7475 -42.69140625 1.8125 C-30.44502368 -8.54416021 -13.41005886 -7.69875454 0 0 Z " fill="#12485D" transform="translate(630.50390625,396.4375)"/>
<path d="M0 0 C6.95962928 5.53606875 11.33139636 10.90346796 14.75 19.1875 C15.30107422 20.49460937 15.30107422 20.49460937 15.86328125 21.828125 C18.8089064 32.98776212 18.43868167 48.04297788 12.75 58.1875 C12.30269531 58.991875 11.85539063 59.79625 11.39453125 60.625 C6.36216934 68.82788482 -0.73269523 75.04586806 -10.11987305 77.72021484 C-19.78551385 79.84056287 -31.68652281 79.32902546 -40.25 74.1875 C-41.57 73.1975 -42.89 72.2075 -44.25 71.1875 C-44.58 82.4075 -44.91 93.6275 -45.25 105.1875 C-51.19 105.1875 -57.13 105.1875 -63.25 105.1875 C-63.25 69.2175 -63.25 33.2475 -63.25 -3.8125 C-57.64 -3.8125 -52.03 -3.8125 -46.25 -3.8125 C-45.92 -1.5025 -45.59 0.8075 -45.25 3.1875 C-44.7653125 2.78917969 -44.280625 2.39085937 -43.78125 1.98046875 C-30.2710114 -8.69781599 -14.926638 -8.32447119 0 0 Z " fill="#11465C" transform="translate(726.25,396.8125)"/>
<path d="M0 0 C5.61 0 11.22 0 17 0 C17 35.97 17 71.94 17 109 C11.72 109 6.44 109 1 109 C0.505 105.04 0.505 105.04 0 101 C-0.4846875 101.39832031 -0.969375 101.79664063 -1.46875 102.20703125 C-2.1390625 102.73683594 -2.809375 103.26664063 -3.5 103.8125 C-4.1496875 104.33457031 -4.799375 104.85664062 -5.46875 105.39453125 C-11.67755243 109.33252168 -17.59090722 110.53660861 -24.875 110.4375 C-25.66438965 110.42920166 -26.4537793 110.42090332 -27.26708984 110.41235352 C-36.58558611 110.14301619 -43.43079881 107.42846342 -50.25 100.98046875 C-58.69759826 91.42035197 -61.36454467 78.63020919 -61.2109375 66.21875 C-60.4713398 54.93303702 -56.50821082 44.98281272 -48.25 37.125 C-39.15176049 29.91796758 -29.47244084 28.71265373 -18.15625 29.66455078 C-11.12979796 30.75766051 -5.55151972 34.83636021 0 39 C0 26.13 0 13.26 0 0 Z " fill="#54A9B6" transform="translate(713,496)"/>
<path d="M0 0 C9.33227857 6.73174944 15.15285937 15.90348942 17.3125 27.3125 C18.37709554 40.69847993 16.0400571 52.18197278 7.64453125 62.8671875 C-0.44105685 71.34554286 -10.57123237 75.3464797 -22.125 75.6875 C-33.32524683 75.37200009 -43.39151547 72.13809488 -51.7265625 64.42578125 C-59.75133864 55.73511943 -63.08949377 45.7328421 -63.0625 34 C-63.06088867 33.26160889 -63.05927734 32.52321777 -63.05761719 31.76245117 C-62.85902104 22.83438605 -60.11725877 15.43905839 -54.6875 8.3125 C-54.130625 7.4875 -53.57375 6.6625 -53 5.8125 C-39.68822889 -8.5786039 -16.32617562 -10.019576 0 0 Z " fill="#53A9B5" transform="translate(623.6875,531.6875)"/>
<path d="M0 0 C48.73154362 0 48.73154362 0 60.9921875 10.74609375 C69.5597492 19.58943533 71.74266334 29.69075334 71.59179688 41.62695312 C71.16371898 51.53282572 68.07210114 59.99375863 61.1484375 67.25 C51.98151572 74.71687446 41.22912178 77.34271656 29.6875 77.1953125 C28.54958008 77.19229126 28.54958008 77.19229126 27.38867188 77.18920898 C24.59238518 77.17885444 21.79618561 77.15093311 19 77.125 C9.595 77.063125 9.595 77.063125 0 77 C0 51.59 0 26.18 0 0 Z " fill="#0F4459" transform="translate(463,622)"/>
<path d="M0 0 C7.49787156 6.00141487 11.5729493 13.28007845 13.87890625 22.50390625 C13.87890625 28.77390625 13.87890625 35.04390625 13.87890625 41.50390625 C-4.93109375 41.50390625 -23.74109375 41.50390625 -43.12109375 41.50390625 C-38.9293099 51.90718723 -38.9293099 51.90718723 -30.49609375 58.37890625 C-18.93790661 61.9935453 -8.82624399 57.82489416 1.87890625 53.50390625 C3.05139978 54.95755894 4.21674441 56.41698044 5.37890625 57.87890625 C6.02859375 58.69101562 6.67828125 59.503125 7.34765625 60.33984375 C8.87890625 62.50390625 8.87890625 62.50390625 8.87890625 64.50390625 C-2.59996783 72.94840583 -15.06527064 75.75253768 -29.12109375 74.50390625 C-39.86822998 72.54343964 -48.06062031 68.09722035 -54.49609375 59.19140625 C-61.65037697 48.54365725 -61.31564733 34.77242277 -60.12109375 22.50390625 C-58.18589636 13.54777535 -53.08587127 6.37392083 -46.12109375 0.50390625 C-31.66948234 -8.41034149 -14.52320731 -9.82883727 0 0 Z " fill="#51A8B5" transform="translate(805.12109375,531.49609375)"/>
<path d="M0 0 C1.69952078 1.63315176 3.37425087 3.29339656 5 5 C3.40703626 7.17575536 1.8017742 9.34015051 0.1875 11.5 C-0.26431641 12.12003906 -0.71613281 12.74007813 -1.18164062 13.37890625 C-2.38335146 14.97533962 -3.68653633 16.49417079 -5 18 C-8.67535274 18 -10.01194946 16.63995336 -12.79296875 14.38671875 C-21.93119239 8.64500301 -32.57916785 8.71029305 -43 10 C-51.67335349 12.42559886 -57.96141667 17.61817189 -63 25 C-68.86503996 35.66992692 -70.07380398 49.12208078 -66.80859375 60.921875 C-63.20590779 70.18095196 -57.69627805 76.36636075 -48.984375 81.09375 C-40.28202334 84.68097893 -28.70256804 84.3087065 -19.9375 81.25 C-16.79992811 79.94032285 -13.94815358 78.41483577 -11.0625 76.625 C-10.051875 76.08875 -9.04125 75.5525 -8 75 C-4.26408536 76.20165502 -1.93514103 78.86088423 0.75 81.625 C1.54921875 82.44226563 2.3484375 83.25953125 3.171875 84.1015625 C3.77515625 84.72804688 4.3784375 85.35453125 5 86 C1.30388349 91.37616947 -2.71072904 94.28782823 -8.375 97.3125 C-8.99898682 97.64958984 -9.62297363 97.98667969 -10.26586914 98.33398438 C-17.80249375 102.20443353 -24.88809227 103.37134038 -33.3125 103.3125 C-34.14773193 103.30758545 -34.98296387 103.3026709 -35.84350586 103.29760742 C-42.27583065 103.17588949 -47.98676722 102.39941699 -54 100 C-54.81210937 99.69449219 -55.62421875 99.38898438 -56.4609375 99.07421875 C-69.08276651 93.59945065 -78.95518817 82.51647446 -84.2734375 70.00390625 C-90.33014971 53.83119597 -89.92578005 35.70875866 -82.875 19.875 C-79.80943099 14.13167492 -75.57465821 9.58261414 -71 5 C-70.43410156 4.4225 -69.86820312 3.845 -69.28515625 3.25 C-50.79848112 -14.10668276 -20.25135663 -14.41679492 0 0 Z " fill="#10465B" transform="translate(547,373)"/>
<path d="M0 0 C1.35019449 0.97711443 2.69121806 1.96807578 4 3 C2.37815499 6.58513106 0.20743761 9.58992323 -2.125 12.75 C-2.84945312 13.73484375 -3.57390625 14.7196875 -4.3203125 15.734375 C-4.87460937 16.48203125 -5.42890625 17.2296875 -6 18 C-8.28351405 16.86916888 -10.5484283 15.71203695 -12.8046875 14.52734375 C-13.81789063 14.00269531 -14.83109375 13.47804688 -15.875 12.9375 C-16.88304687 12.41027344 -17.89109375 11.88304687 -18.9296875 11.33984375 C-27.6455449 7.53635891 -38.70642443 7.82585273 -47.62109375 10.90234375 C-56.35991688 14.93454293 -62.14614104 21.62205762 -66.03125 30.3046875 C-69.72107349 40.72502237 -69.20019071 52.8129703 -65 63 C-60.26998524 71.83479769 -53.74643778 77.45138844 -44.1953125 80.59375 C-32.2350126 82.80704393 -22.06776972 80.30248033 -11.5625 74.625 C-8 73 -8 73 -6.04296875 73.6484375 C-3.6633184 75.22273773 -1.76004505 76.97506573 0.25 79 C1.30960938 80.051875 1.30960938 80.051875 2.390625 81.125 C4 83 4 83 4 85 C-10.25453485 97.27624389 -24.27498263 101.03237831 -42.64160156 100.1953125 C-55.28297409 99.14840794 -66.17291862 91.72005288 -74.67578125 82.75 C-85.12185614 70.39027442 -88.84930278 55.71208125 -88.3828125 39.8203125 C-86.89391202 24.96169345 -79.69064997 11.16767097 -68.19140625 1.68359375 C-46.75937801 -14.23959002 -22.42449922 -13.70386063 0 0 Z " fill="#52A8B5" transform="translate(548,507)"/>
<path d="M0 0 C8.11951853 4.45777488 12.47023329 10.53318412 15.30859375 19.23828125 C17.52116425 28.07606285 15.51877497 36.32227506 11.25 44.25 C5.31951198 51.49837424 -1.46409014 56.14369095 -10.921875 57.3828125 C-19.3530656 57.71044944 -27.53114681 55.9003487 -34.375 50.75 C-42.07677003 42.68147902 -44.51623434 34.3759444 -44.3125 23.28515625 C-43.5625356 15.40115553 -40.14657155 8.10698228 -34 3 C-23.10714057 -3.54251308 -11.85143427 -5.48808932 0 0 Z " fill="#10455A" transform="translate(588,644)"/>
<path d="M0 0 C9.09435019 -0.57741906 15.2110049 1.50304934 22.3125 7.25 C27.28108259 11.84247474 30.80556872 18.03641292 31.1418457 24.89160156 C31.15304443 26.0462793 31.16424316 27.20095703 31.17578125 28.390625 C31.19962891 29.65777344 31.22347656 30.92492187 31.24804688 32.23046875 C31.29452314 34.89489108 31.32214375 37.55769224 31.34179688 40.22265625 C31.52113686 49.81963757 31.52113686 49.81963757 36 58 C40.18226523 60.72756428 42.90612706 61.15102118 48 62 C48 66.95 48 71.9 48 77 C46.618125 77.2475 45.23625 77.495 43.8125 77.75 C39.643979 78.6872618 36.99620225 79.82220973 34 83 C32.0958945 86.84542342 31.75003795 89.99648308 31.7265625 94.26171875 C31.7059375 95.46376953 31.6853125 96.66582031 31.6640625 97.90429688 C31.63822319 100.40683404 31.61987379 102.90946084 31.609375 105.41210938 C31.43207558 114.64645403 29.92221235 121.57493558 24.8125 129.3125 C19.17897988 134.69564145 12.66936585 138.16453722 4.8125 138.0625 C3.224375 138.041875 1.63625 138.02125 0 138 C0 133.05 0 128.1 0 123 C1.216875 122.773125 2.43375 122.54625 3.6875 122.3125 C7.967702 121.25762752 10.16826848 119.43240185 13 116 C14.41826121 113.16347758 14.1459368 110.72747308 14.17578125 107.55859375 C14.19962891 106.25212891 14.22347656 104.94566406 14.24804688 103.59960938 C14.28291957 101.52846376 14.3123666 99.45787578 14.32592773 97.38647461 C14.40550013 87.21222591 14.89892129 78.95164803 22.25 71.4375 C23.1575 70.633125 24.065 69.82875 25 69 C24.236875 68.2575 23.47375 67.515 22.6875 66.75 C16.84069289 60.76722063 14.77063205 55.74736812 14.7265625 47.28125 C14.7059375 46.01925781 14.6853125 44.75726563 14.6640625 43.45703125 C14.63802148 40.81907597 14.61979183 38.181032 14.609375 35.54296875 C14.58617187 34.28097656 14.56296875 33.01898438 14.5390625 31.71875 C14.53084473 30.57341797 14.52262695 29.42808594 14.51416016 28.24804688 C13.88803493 24.29269552 12.47814815 22.11176235 10 19 C7.47969117 17.46688914 7.47969117 17.46688914 4.75 16.625 C3.1825 16.08875 1.615 15.5525 0 15 C0 10.05 0 5.1 0 0 Z " fill="#11475C" transform="translate(329,465)"/>
<path d="M0 0 C2.1346875 0.0309375 2.1346875 0.0309375 4.3125 0.0625 C4.3125 5.0125 4.3125 9.9625 4.3125 15.0625 C1.80598958 16.20182292 -0.70052083 17.34114583 -3.20703125 18.48046875 C-6.19794865 20.38806174 -7.13183469 21.88732158 -8.6875 25.0625 C-9.12328854 28.08434715 -9.12328854 28.08434715 -9.05859375 31.32421875 C-9.07599609 32.52626953 -9.09339844 33.72832031 -9.11132812 34.96679688 C-9.12037209 37.46939012 -9.1256408 39.97200013 -9.12695312 42.47460938 C-9.30542746 54.01389809 -11.68376683 61.69496077 -19.6875 70.0625 C-18.945 70.5575 -18.2025 71.0525 -17.4375 71.5625 C-12.86382323 75.72038797 -9.86570273 81.75940486 -9.52978516 87.98583984 C-9.51222168 89.15324707 -9.4946582 90.3206543 -9.4765625 91.5234375 C-9.44820312 92.79960938 -9.41984375 94.07578125 -9.390625 95.390625 C-9.34941717 97.41373301 -9.31251171 99.43660215 -9.28613281 101.45996094 C-9.25840823 103.41884622 -9.21144577 105.37742913 -9.1640625 107.3359375 C-9.1343335 109.09043213 -9.1343335 109.09043213 -9.10400391 110.88037109 C-8.64764511 114.36699509 -7.76470494 116.25341712 -5.6875 119.0625 C-2.17663492 121.64945321 -0.12451045 122.17509791 4.3125 123.0625 C4.3125 128.0125 4.3125 132.9625 4.3125 138.0625 C-4.32636707 138.6109995 -9.79443187 136.68283432 -16.9375 131.875 C-22.88623384 125.79106766 -25.78123258 119.13174184 -25.86328125 110.671875 C-25.88712891 109.40472656 -25.91097656 108.13757813 -25.93554688 106.83203125 C-25.98202314 104.16760892 -26.00964375 101.50480776 -26.02929688 98.83984375 C-26.20863686 89.24286243 -26.20863686 89.24286243 -30.6875 81.0625 C-34.86976523 78.33493572 -37.59362706 77.91147882 -42.6875 77.0625 C-42.6875 72.1125 -42.6875 67.1625 -42.6875 62.0625 C-41.140625 61.69125 -39.59375 61.32 -38 60.9375 C-32.74028882 59.38044669 -30.67838958 57.59707452 -27.6875 53.0625 C-26.26923879 50.22597758 -26.5415632 47.78997308 -26.51171875 44.62109375 C-26.48787109 43.31462891 -26.46402344 42.00816406 -26.43945312 40.66210938 C-26.40458043 38.59096376 -26.3751334 36.52037578 -26.36157227 34.44897461 C-26.27480981 23.35539309 -25.03123291 14.93294882 -17.40234375 6.56640625 C-12.54317138 2.30494529 -6.42605185 -0.09313119 0 0 Z " fill="#12465C" transform="translate(240.6875,464.9375)"/>
<path d="M0 0 C1.174487 -0.0087616 2.348974 -0.01752319 3.55905151 -0.02655029 C6.77208106 -0.04476363 9.98407766 -0.04052852 13.19709134 -0.02465487 C16.56248177 -0.01197433 19.92780442 -0.02374164 23.29319763 -0.03158569 C28.94314928 -0.04067485 34.59277382 -0.02871274 40.24267578 -0.00488281 C46.77255487 0.02234078 53.30165368 0.01350333 59.83151394 -0.01401484 C65.44188981 -0.03671056 71.05203091 -0.03990431 76.66243786 -0.02682149 C80.01163108 -0.01903099 83.36045757 -0.01797395 86.70962715 -0.03450394 C90.44237505 -0.04717365 94.17361473 -0.02788682 97.90625 0 C99.01545303 -0.01012115 100.12465607 -0.02024231 101.26747131 -0.03067017 C108.71599779 0.07265448 108.71599779 0.07265448 112.10215759 2.9647522 C113.89131432 6.69562694 113.60128821 8.72301228 112.38842773 12.64697266 C110.2012213 15.21494375 108.42631869 16.48336762 105.06048584 17.01393127 C102.05616291 17.16967664 99.07645748 17.18715594 96.06811523 17.16455078 C94.92449524 17.17156006 93.78087524 17.17856934 92.6026001 17.18579102 C88.82262893 17.20339496 85.04340651 17.19173887 81.26342773 17.17822266 C78.63696143 17.18091686 76.01049609 17.18479867 73.3840332 17.18981934 C67.87955616 17.19709062 62.375294 17.1875219 56.87084961 17.16845703 C50.51262886 17.14668898 44.1549212 17.15374074 37.79671288 17.17576265 C31.6729389 17.1961213 25.5493919 17.19394177 19.42559814 17.18223572 C16.8228549 17.17956585 14.22009858 17.18284726 11.61737061 17.19215393 C7.98080675 17.20230336 4.34523047 17.18683893 0.70874023 17.16455078 C-0.36881531 17.17264771 -1.44637085 17.18074463 -2.55657959 17.18908691 C-7.02927892 17.13825769 -9.82581964 17.10218942 -13.7487793 14.82946777 C-16.39104466 11.73372319 -16.75347936 9.69132476 -16.61157227 5.64697266 C-12.34853125 -0.76932548 -7.00313081 -0.06401836 0 0 Z " fill="#53A9B6" transform="translate(208.611572265625,390.35302734375)"/>
<path d="M0 0 C30.12209658 0 30.12209658 0 37.52734375 7.16015625 C43.59329893 14.73857771 43.9246641 23.65309425 43 33 C41.89471299 38.08113957 39.78777381 42.406471 36 46 C24.01035779 53.28458468 14.95151851 52 0 52 C0 34.84 0 17.68 0 0 Z " fill="#FDFEFE" transform="translate(477,635)"/>
<path d="M0 0 C1.11596558 -0.0071553 2.23193115 -0.01431061 3.38171387 -0.02168274 C7.06926444 -0.038587 10.75560244 -0.0191565 14.44311523 0.00219727 C17.00471599 0.0013688 19.5663167 -0.00108975 22.12791443 -0.00511169 C27.4954469 -0.00797084 32.86255013 0.00621511 38.22998047 0.03417969 C44.43259837 0.06624676 50.63458766 0.06620866 56.83725029 0.04896492 C62.80938355 0.0330948 68.78132412 0.03993295 74.75346184 0.05690193 C77.29283062 0.06209119 79.83221751 0.06159297 82.37158394 0.05535698 C85.91739211 0.04991787 89.4621266 0.0702395 93.0078125 0.09765625 C94.0609111 0.09113037 95.1140097 0.08460449 96.19902039 0.07788086 C103.30143637 0.17144575 103.30143637 0.17144575 106.58702087 2.53944397 C108.03550116 4.78005502 108.50688504 5.98096332 108.50170898 8.63110352 C108.52362305 9.29110352 108.54553711 9.95110352 108.56811523 10.63110352 C107.52698243 13.94203515 105.89788446 14.83597259 102.93920898 16.63110352 C99.2916151 17.23550562 95.67663035 17.18770513 91.98608398 17.16455078 C90.88147827 17.17316635 89.77687256 17.18178192 88.63879395 17.19065857 C84.98869373 17.21335536 81.33935888 17.20657273 77.68920898 17.19750977 C75.1524228 17.20274343 72.61563857 17.20901896 70.07885742 17.21629333 C64.76267323 17.2267043 59.44676691 17.2224547 54.13061523 17.20751953 C47.99043322 17.19059215 41.85096182 17.20644325 35.71085739 17.23874241 C29.79640759 17.26867258 23.88217859 17.2706204 17.96765137 17.26124382 C15.45421423 17.26042292 12.94076243 17.26731262 10.42736816 17.28201485 C6.91516112 17.29941045 3.4044793 17.28495765 -0.10766602 17.26220703 C-1.1478186 17.27389923 -2.18797119 17.28559143 -3.25964355 17.29763794 C-8.01288496 17.23491005 -10.31060346 17.19203015 -14.20629883 14.27915955 C-16.06079102 11.63110352 -16.06079102 11.63110352 -16.68579102 8.63110352 C-14.80180405 -0.41203394 -7.62197631 -0.08478722 0 0 Z " fill="#50A7B4" transform="translate(271.060791015625,629.368896484375)"/>
<path d="M0 0 C5.4926841 4.14848293 9.10032183 8.70737647 10.8515625 15.3984375 C11.7152432 23.8745597 11.48342833 32.03079126 6.8515625 39.3984375 C2.60531007 44.22829808 -1.94149174 47.06893053 -8.41796875 47.734375 C-17.88085477 47.83870671 -22.78415053 46.54115463 -30.31640625 41.1171875 C-34.20994909 37.12870988 -33.96346259 32.64609458 -34.01757812 27.30859375 C-33.99888672 26.05949219 -33.98019531 24.81039063 -33.9609375 23.5234375 C-33.99251953 22.28207031 -34.02410156 21.04070312 -34.05664062 19.76171875 C-34.03413291 13.72321912 -33.86178741 9.39708952 -29.86328125 4.671875 C-21.91443271 -3.18302573 -9.95030945 -5.77363635 0 0 Z " fill="#FDFDFE" transform="translate(714.1484375,410.6015625)"/>
<path d="M0 0 C5.97386343 5.23482878 9.51776019 10.26732094 10.3359375 18.296875 C10.43072691 26.67625908 10.11119825 34.32375555 4.3515625 40.875 C-2.20763783 46.83270161 -8.63131392 47.62410492 -17.32421875 47.3828125 C-22.31519424 46.86302972 -25.35836162 45.36726837 -29 42 C-29.87914062 41.401875 -30.75828125 40.80375 -31.6640625 40.1875 C-35.47838327 34.98267433 -34.80149655 29.46686108 -34.75 23.1875 C-34.78609375 21.94162109 -34.8221875 20.69574219 -34.859375 19.41210938 C-34.859375 13.36195505 -34.73312607 9.01082899 -30.7265625 4.26953125 C-22.40984429 -3.95327028 -10.2882269 -5.78031123 0 0 Z " fill="#FDFEFE" transform="translate(619,411)"/>
<path d="M0 0 C5.57871422 3.32599875 9.65484621 8.22895404 11.5625 14.4375 C13.01419336 31.40205617 13.01419336 31.40205617 8.890625 37.86328125 C3.90614723 43.77135343 -0.68238045 46.7490371 -8.52734375 47.6875 C-14.71352422 48.0354047 -20.13000067 46.65443932 -25.4375 43.4375 C-31.78542271 37.4037013 -33.49420258 30.62668991 -33.8125 22.0625 C-33.6781469 15.17887928 -32.4974172 9.80195872 -27.7890625 4.625 C-20.24510325 -2.22715513 -9.54011415 -4.29120965 0 0 Z " fill="#FDFEFE" transform="translate(611.4375,543.5625)"/>
<path d="M0 0 C4.44181214 2.30261165 7.53682508 5.01226888 10.3359375 9.2109375 C10.90720115 13.23342155 10.89128589 17.27757008 10.9609375 21.3359375 C11.01894531 22.439375 11.07695313 23.5428125 11.13671875 24.6796875 C11.23132553 30.80729616 10.71313211 34.57449765 6.671875 39.328125 C1.17798901 44.64210279 -3.27799229 46.65352208 -10.9765625 46.7734375 C-18.07844496 46.6199587 -22.65471785 45.32182292 -27.6640625 40.2109375 C-32.31759946 34.47424969 -34.19656567 26.65954458 -33.98046875 19.35546875 C-32.96286376 12.45836827 -30.10258105 6.61354776 -24.6640625 2.2109375 C-16.16248906 -3.91019538 -9.41073234 -4.08281003 0 0 Z " fill="#FCFDFE" transform="translate(702.6640625,543.7890625)"/>
<path d="M0 0 C0.47308594 0.43441406 0.94617188 0.86882813 1.43359375 1.31640625 C1.43359375 4.90553037 0.76922821 5.42497654 -1.56640625 8.00390625 C-2.12328125 8.62652344 -2.68015625 9.24914062 -3.25390625 9.890625 C-3.68703125 10.36113281 -4.12015625 10.83164062 -4.56640625 11.31640625 C-9.56640625 9.31640625 -9.56640625 9.31640625 -11.81640625 8.19140625 C-16.58177553 6.67515239 -21.13235107 6.29553735 -25.8203125 8.26171875 C-29.98184297 10.69885814 -32.45619719 12.87988239 -34.56640625 17.31640625 C-35.40403489 23.87783062 -35.64824636 30.82703507 -31.56640625 36.31640625 C-26.91351586 40.62032986 -23.21223823 41.63505769 -17.046875 41.625 C-13.48998515 41.18248929 -10.71549389 39.72737313 -7.609375 37.99609375 C-5.56640625 37.31640625 -5.56640625 37.31640625 -3.4765625 37.97265625 C-1.38802834 39.44189092 -0.22841591 40.82339175 1.18359375 42.94140625 C1.6115625 43.57304688 2.03953125 44.2046875 2.48046875 44.85546875 C2.795 45.33757813 3.10953125 45.8196875 3.43359375 46.31640625 C-6.55562178 52.70789627 -14.56783003 55.45776903 -26.56640625 54.31640625 C-33.19021066 52.69949976 -39.16971131 49.6081027 -43.56640625 44.31640625 C-49.2609326 34.83538966 -51.47875495 25.42476472 -48.8828125 14.41796875 C-45.53569318 5.39046851 -40.66095718 0.37889342 -32.03125 -3.73828125 C-21.22628181 -7.88218347 -9.63263634 -5.98988498 0 0 Z " fill="#10445A" transform="translate(662.56640625,646.68359375)"/>
<path d="M0 0 C0.83281998 -0.00846954 1.66563995 -0.01693909 2.5236969 -0.02566528 C5.280357 -0.04908994 8.03646074 -0.05005616 10.79321289 -0.04882812 C12.70748621 -0.05592644 14.6217574 -0.06362495 16.536026 -0.07189941 C20.55011915 -0.08535681 24.56401558 -0.08690736 28.578125 -0.08105469 C33.72454427 -0.07515761 38.87002048 -0.10574453 44.01625729 -0.14617157 C47.97023105 -0.17200959 51.92397659 -0.17492953 55.87802315 -0.17127991 C57.77547132 -0.17297484 59.67292962 -0.18265311 61.57029533 -0.20042419 C64.22328841 -0.22253733 66.87435779 -0.21295201 69.52734375 -0.1953125 C70.70494766 -0.21520737 70.70494766 -0.21520737 71.90634155 -0.23550415 C75.74721756 -0.17610462 77.47604958 0.09704663 80.35108948 2.73181152 C82.36664795 6.39939305 81.9320931 8.44651563 80.82836914 12.41992188 C79.78050232 14.10461426 79.78050232 14.10461426 77.82836914 15.41992188 C75.03159234 15.72643876 72.45557257 15.85026471 69.65673828 15.83984375 C68.8239183 15.84831329 67.99109833 15.85678284 67.13304138 15.86550903 C64.37638128 15.88893369 61.62027754 15.88989991 58.86352539 15.88867188 C56.94925207 15.89577019 55.03498088 15.9034687 53.12071228 15.91174316 C49.10661913 15.92520056 45.0927227 15.92675111 41.07861328 15.92089844 C35.93219401 15.91500136 30.7867178 15.94558828 25.640481 15.98601532 C21.68650723 16.01185334 17.73276169 16.01477328 13.77871513 16.01112366 C11.88126696 16.01281859 9.98380866 16.02249686 8.08644295 16.04026794 C5.43344987 16.06238108 2.78238049 16.05279576 0.12939453 16.03515625 C-0.65567474 16.04841949 -1.44074402 16.06168274 -2.24960327 16.0753479 C-6.09047928 16.01594837 -7.8193113 15.74279712 -10.6943512 13.10803223 C-12.70990967 9.4404507 -12.27535482 7.39332812 -11.17163086 3.41992188 C-8.5990985 -0.71602897 -4.36748985 -0.01626157 0 0 Z " fill="#54A9B6" transform="translate(204.171630859375,426.580078125)"/>
<path d="M0 0 C4.12751449 0.60698743 7.3321148 2.03810791 11 4 C10.37019027 11.95484076 8.54650189 19.45936295 6.578125 27.17578125 C6.23228695 28.54977017 5.88698135 29.92389321 5.54217529 31.29814148 C4.63526004 34.90681867 3.72131833 38.51367898 2.80578613 42.12017822 C1.89242827 45.72295674 0.98548352 49.32734742 0.078125 52.93164062 C-1.31263896 58.45342774 -2.70673745 63.97436026 -4.10351562 69.49462891 C-6.42112275 78.65840568 -8.71483128 87.828088 -11 97 C-12.43931117 96.54738642 -13.87638999 96.08767021 -15.3125 95.625 C-16.11300781 95.36976563 -16.91351563 95.11453125 -17.73828125 94.8515625 C-20 94 -20 94 -23 92 C-22.34717653 86.7852017 -21.29372253 81.80943992 -19.97460938 76.72558594 C-19.77124466 75.92958984 -19.56787994 75.13359375 -19.35835266 74.31347656 C-18.69040085 71.70284276 -18.01716065 69.09360553 -17.34375 66.484375 C-16.87645561 64.66318171 -16.40945979 62.84191179 -15.94274902 61.02056885 C-14.96653014 57.21397508 -13.98790163 53.40801236 -13.00732422 49.60253906 C-11.74973338 44.72191561 -10.49633659 39.84022805 -9.24449921 34.95812607 C-8.04985998 30.29983796 -6.85313018 25.64208773 -5.65625 20.984375 C-5.42789963 20.09499992 -5.19954926 19.20562485 -4.96427917 18.28929901 C-4.31913873 15.77817877 -3.67251121 13.26744652 -3.02539062 10.75683594 C-2.83419144 10.01185852 -2.64299225 9.2668811 -2.44599915 8.49932861 C-1.7056228 5.63229894 -0.93675315 2.81025944 0 0 Z " fill="#51A7B4" transform="translate(293,485)"/>
<path d="M0 0 C5.86970122 4.87336087 11.26604835 10.12056808 16.65234375 15.51953125 C18.00254356 16.86829597 18.00254356 16.86829597 19.38002014 18.24430847 C21.26964342 20.13325439 23.15823816 22.02316308 25.04516602 23.91479492 C27.46847733 26.34385209 29.89631743 28.76832574 32.32547665 31.19153309 C34.64518724 33.50677961 36.961105 35.82581218 39.27734375 38.14453125 C40.15220932 39.01737259 41.02707489 39.89021393 41.92845154 40.789505 C42.72670853 41.59091415 43.52496552 42.3923233 44.34741211 43.21801758 C45.40828285 44.28008171 45.40828285 44.28008171 46.49058533 45.36360168 C48 47 48 47 48 48 C42.55571763 48.09916726 37.11196552 48.17160909 31.66699219 48.21972656 C29.81631304 48.23979339 27.96569691 48.26705345 26.11523438 48.30175781 C23.44906023 48.35049433 20.78372713 48.37301787 18.1171875 48.390625 C17.29507782 48.41127014 16.47296814 48.43191528 15.62594604 48.45318604 C10.29363111 48.4552505 7.12145026 47.70092549 3 44 C-0.36466469 39.11824981 -0.40340773 34.80926456 -0.29296875 29.1015625 C-0.28872391 28.26660248 -0.28447906 27.43164246 -0.28010559 26.57138062 C-0.26340333 23.92224965 -0.22576775 21.2738984 -0.1875 18.625 C-0.1724422 16.82162562 -0.15875571 15.01823924 -0.14648438 13.21484375 C-0.11352762 8.8095985 -0.06180469 4.40493114 0 0 Z " fill="#C7E9E9" transform="translate(356,358)"/>
<path d="M0 0 C4.50162567 2.58426659 7.43558219 5.9111477 8.9921875 10.92578125 C10.20746816 17.3122051 9.63922407 23.27951161 6.375 28.9375 C2.64055444 33.05967488 -0.86245566 34.82192332 -6.4375 35.1875 C-11.15642223 35.10107285 -14.63942669 33.90160765 -18.0703125 30.5078125 C-22.92984558 24.92629165 -22.96969072 20.24645611 -22.90625 13.109375 C-22.42226482 7.65109765 -19.98239338 5.16246475 -16.0625 1.625 C-10.88120704 -1.96204898 -5.90696688 -1.73135236 0 0 Z " fill="#FCFDFD" transform="translate(580.625,654.0625)"/>
<path d="M0 0 C0.66 0 1.32 0 2 0 C3.5078125 1.75 3.5078125 1.75 5.125 4 C5.66382813 4.7425 6.20265625 5.485 6.7578125 6.25 C7.16773438 6.8275 7.57765625 7.405 8 8 C2.80029729 15.51068169 -3.47199125 21.66212743 -10 28 C-8.44904419 31.62169141 -6.23134948 34.12518019 -3.5625 37 C2.28486741 43.31939542 2.28486741 43.31939542 4 46 C3.09158433 50.03740297 1.02702828 52.27567455 -2 55 C-6.04405983 53.42783622 -8.50625006 50.54861889 -11.3125 47.375 C-11.79525391 46.83738037 -12.27800781 46.29976074 -12.77539062 45.74584961 C-13.74190815 44.66722767 -14.70567063 43.58612994 -15.66650391 42.50244141 C-16.82571958 41.19636062 -17.99589815 39.90002601 -19.16796875 38.60546875 C-22.21315312 35.20966614 -24.67366935 31.9369602 -27 28 C-26.21761963 27.22285645 -25.43523926 26.44571289 -24.62915039 25.64501953 C-21.73242113 22.76636399 -18.83898104 19.88442178 -15.9465332 17.00146484 C-14.69319988 15.75316629 -13.43897132 14.50576593 -12.18383789 13.25927734 C-10.38192498 11.46946736 -8.58323573 9.67647255 -6.78515625 7.8828125 C-6.22159927 7.32441681 -5.6580423 6.76602112 -5.07740784 6.19070435 C-2.18045126 3.36743648 -2.18045126 3.36743648 0 0 Z " fill="#50A7B4" transform="translate(266,505)"/>
<path d="M0 0 C3.6980066 3.59788007 7.07485776 7.34940625 10.375 11.3125 C11.33671269 12.4587756 12.29895244 13.60460921 13.26171875 14.75 C13.72626465 15.30300781 14.19081055 15.85601563 14.66943359 16.42578125 C17.40054259 19.65700892 20.19584512 22.83216633 23 26 C21.39068981 29.85507075 18.90144796 32.46961652 16.0625 35.5 C15.07378169 36.55688296 14.08551425 37.61418787 13.09765625 38.671875 C12.5886377 39.21521484 12.07961914 39.75855469 11.55517578 40.31835938 C9.9907721 42.0099783 8.45871303 43.72605822 6.93359375 45.453125 C6.44173584 46.00548828 5.94987793 46.55785156 5.44311523 47.12695312 C4.49510634 48.19316242 3.5529956 49.26465101 2.61743164 50.34179688 C1.47246743 51.61850159 0.2416322 52.81709364 -1 54 C-4 54 -4 54 -5.38671875 52.6875 C-6.59114583 51.125 -7.79557292 49.5625 -9 48 C-7.05059082 43.02900659 -2.97545946 39.5546642 0.65625 35.77734375 C4.42983776 31.80902633 4.42983776 31.80902633 7 27 C6.33613281 26.29875 5.67226563 25.5975 4.98828125 24.875 C0.02348259 19.54055939 -4.39311383 14.37216557 -8 8 C-5.36 5.36 -2.72 2.72 0 0 Z " fill="#51A7B4" transform="translate(312,507)"/>
<path d="M0 0 C4.69311685 3.40706847 7.84141519 7.21897437 9.5625 12.8125 C9.5625 14.1325 9.5625 15.4525 9.5625 16.8125 C-3.9675 16.8125 -17.4975 16.8125 -31.4375 16.8125 C-30.40089914 9.55629397 -29.2038415 6.91271566 -24.4375 1.8125 C-17.60170411 -3.23296839 -7.43683854 -4.45094089 0 0 Z " fill="#FCFDFE" transform="translate(793.4375,542.1875)"/>
<path d="M0 0 C5.61 0 11.22 0 17 0 C17 35.97 17 71.94 17 109 C11.72 109 6.44 109 1 109 C1 106.03 1 103.06 1 100 C1.33 100 1.66 100 2 100 C2 102.31 2 104.62 2 107 C6.29 107 10.58 107 15 107 C15 72.02 15 37.04 15 1 C10.38 1 5.76 1 1 1 C1 13.54 1 26.08 1 39 C0.67 39 0.34 39 0 39 C0 26.13 0 13.26 0 0 Z " fill="#43A1AF" transform="translate(713,496)"/>
<path d="M0 0 C0.66 0.33 1.32 0.66 2 1 C2 12.55 2 24.1 2 36 C-3.61 36 -9.22 36 -15 36 C-15 35.34 -15 34.68 -15 34 C-10.05 34 -5.1 34 0 34 C0 22.78 0 11.56 0 0 Z " fill="#254B5F" transform="translate(583,466)"/>
<path d="M0 0 C1.24445641 -0.0010952 1.24445641 -0.0010952 2.51405334 -0.00221252 C5.25255021 0.00126716 7.98933988 0.04014491 10.72753906 0.0793457 C12.62753368 0.08867251 14.52754033 0.09578925 16.42755127 0.1007843 C21.42557034 0.11986456 26.42286155 0.16897434 31.42059326 0.2243042 C36.52150628 0.27547444 41.62253705 0.2982936 46.72363281 0.32348633 C56.73046282 0.37709198 66.73675289 0.46241735 76.74316406 0.56762695 C76.74316406 0.89762695 76.74316406 1.22762695 76.74316406 1.56762695 C49.02316406 1.56762695 21.30316406 1.56762695 -7.25683594 1.56762695 C-7.58683594 2.55762695 -7.91683594 3.54762695 -8.25683594 4.56762695 C-8.91683594 4.56762695 -9.57683594 4.56762695 -10.25683594 4.56762695 C-10.58683594 6.21762695 -10.91683594 7.86762695 -11.25683594 9.56762695 C-12.00683594 7.88012695 -12.00683594 7.88012695 -12.25683594 5.56762695 C-9.17015078 0.0829132 -5.84361325 -0.13460116 0 0 Z " fill="#2D96A6" transform="translate(204.2568359375,426.432373046875)"/>
<path d="M0 0 C2.97 0.33 5.94 0.66 9 1 C9 5.95 9 10.9 9 16 C5.37 16.66 1.74 17.32 -2 18 C-1 16 -1 16 0.84765625 15.3671875 C2.8984375 14.91145833 4.94921875 14.45572917 7 14 C7 10.04 7 6.08 7 2 C4.69 1.67 2.38 1.34 0 1 C0 0.67 0 0.34 0 0 Z " fill="#083249" transform="translate(368,526)"/>
<path d="M0 0 C0.66 0.99 1.32 1.98 2 3 C-0.97 5.475 -0.97 5.475 -4 8 C-3.65213292 9.97536745 -3.65213292 9.97536745 -3 12 C-2.34 12.33 -1.68 12.66 -1 13 C0.6875 15.4375 0.6875 15.4375 2 18 C1.67 18.66 1.34 19.32 1 20 C-0.13033298 18.75482035 -1.25405036 17.50363348 -2.375 16.25 C-3.00148438 15.55390625 -3.62796875 14.8578125 -4.2734375 14.140625 C-6 12 -6 12 -8 8 C-5.36 5.36 -2.72 2.72 0 0 Z " fill="#3F9DAC" transform="translate(312,507)"/>
<path d="M0 0 C0 3 0 3 -1.390625 4.47265625 C-2.31101563 5.25962891 -2.31101563 5.25962891 -3.25 6.0625 C-7.50356138 10.08310772 -9.22133383 14.50933487 -11 20 C-11.66 20 -12.32 20 -13 20 C-10.78336531 11.60012117 -7.20168116 5.07073015 0 0 Z " fill="#092C43" transform="translate(166,342)"/>
<path d="M0 0 C3.44830963 1.27500524 5.68700282 3.41801766 8.25 6 C8.95640625 6.70125 9.6628125 7.4025 10.390625 8.125 C12 10 12 10 12 12 C11.34 12 10.68 12 10 12 C8.39771617 10.29059971 6.98705258 8.46698472 5.53515625 6.62890625 C3.99243114 4.73441742 3.99243114 4.73441742 1 4 C1 3.34 1 2.68 1 2 C-0.98 2.66 -2.96 3.32 -5 4 C-3.36587557 2.29159719 -2.13093906 1.06546953 0 0 Z " fill="#4AA3B0" transform="translate(540,580)"/>
<path d="M0 0 C4.52615993 3.67832017 8.39424999 7.41086363 12 12 C10.68 13.32 9.36 14.64 8 16 C7.34 15.67 6.68 15.34 6 15 C6.66 13.35 7.32 11.7 8 10 C7.4225 9.44570313 6.845 8.89140625 6.25 8.3203125 C5.5075 7.59585937 4.765 6.87140625 4 6.125 C2.88625 5.04605469 2.88625 5.04605469 1.75 3.9453125 C0 2 0 2 0 0 Z " fill="#032740" transform="translate(540,448)"/>
<path d="M0 0 C0 3 0 3 -1.4609375 4.82421875 C-2.09257813 5.43910156 -2.72421875 6.05398438 -3.375 6.6875 C-4.00148438 7.31011719 -4.62796875 7.93273437 -5.2734375 8.57421875 C-7 10 -7 10 -9 10 C-7.61811547 6.78956118 -6.07578097 4.95063635 -3.375 2.75 C-2.74335937 2.22921875 -2.11171875 1.7084375 -1.4609375 1.171875 C-0.73777344 0.59179688 -0.73777344 0.59179688 0 0 Z " fill="#42A0AE" transform="translate(761,531)"/>
<path d="M0 0 C3.21043882 1.38188453 5.04936365 2.92421903 7.25 5.625 C8.03117187 6.57246094 8.03117187 6.57246094 8.828125 7.5390625 C9.40820312 8.26222656 9.40820312 8.26222656 10 9 C7 9 7 9 5.17578125 7.5390625 C4.56089844 6.90742188 3.94601562 6.27578125 3.3125 5.625 C2.68988281 4.99851562 2.06726563 4.37203125 1.42578125 3.7265625 C0 2 0 2 0 0 Z " fill="#20485D" transform="translate(392,373)"/>
<path d="M0 0 C0 3 0 3 -1.3125 4.38671875 C-2.875 5.59114583 -4.4375 6.79557292 -6 8 C-6.66 7.67 -7.32 7.34 -8 7 C-6.80873219 4.61746439 -5.61305574 3.87811124 -3.4375 2.375 C-2.79683594 1.92898438 -2.15617188 1.48296875 -1.49609375 1.0234375 C-1.00238281 0.68570312 -0.50867188 0.34796875 0 0 Z " fill="#08364C" transform="translate(591,396)"/>
<path d="M0 0 C0 3 0 3 -1.3125 4.38671875 C-2.875 5.59114583 -4.4375 6.79557292 -6 8 C-6 5 -6 5 -4.6875 3.61328125 C-3.125 2.40885417 -1.5625 1.20442708 0 0 Z " fill="#44A0AE" transform="translate(668,531)"/>
<path d="M0 0 C0 3 0 3 -1.3125 4.38671875 C-2.875 5.59114583 -4.4375 6.79557292 -6 8 C-6 5 -6 5 -4.6875 3.61328125 C-3.125 2.40885417 -1.5625 1.20442708 0 0 Z " fill="#0E3850" transform="translate(166,342)"/>
</svg>
